<mxfile host="app.diagrams.net" agent="Mozilla/5.0 (Windows NT 10.0; Win64; x64) AppleWebKit/537.36 (KHTML, like Gecko) Chrome/133.0.0.0 Safari/537.36" version="26.0.16">
  <diagram name="1 oldal" id="hQA1ePAgUaZOjneHqYE3">
    <mxGraphModel dx="1644" dy="412" grid="0" gridSize="10" guides="1" tooltips="1" connect="1" arrows="1" fold="1" page="1" pageScale="1" pageWidth="850" pageHeight="1100" background="#FFFFFF" math="0" shadow="0">
      <root>
        <mxCell id="0" />
        <mxCell id="1" parent="0" />
        <mxCell id="xv-40C5iXmkyNjvE8zON-46" value="" style="rounded=0;whiteSpace=wrap;html=1;" parent="1" vertex="1">
          <mxGeometry x="28.99668701171875" y="90.99665649414062" width="742" height="465" as="geometry" />
        </mxCell>
        <mxCell id="xv-40C5iXmkyNjvE8zON-47" value="" style="shape=cube;whiteSpace=wrap;html=1;boundedLbl=1;backgroundOutline=1;darkOpacity=0.05;darkOpacity2=0.1;" parent="1" vertex="1">
          <mxGeometry x="51.99668701171875" y="210.9966564941406" width="120" height="80" as="geometry" />
        </mxCell>
        <mxCell id="xv-40C5iXmkyNjvE8zON-48" value="" style="rounded=0;whiteSpace=wrap;html=1;" parent="1" vertex="1">
          <mxGeometry x="628.9966870117188" y="506.9966564941406" width="120" height="35" as="geometry" />
        </mxCell>
        <mxCell id="xv-40C5iXmkyNjvE8zON-49" value="" style="rounded=0;whiteSpace=wrap;html=1;" parent="1" vertex="1">
          <mxGeometry x="58.49668701171875" y="113.99665649414062" width="51" height="25" as="geometry" />
        </mxCell>
        <mxCell id="xv-40C5iXmkyNjvE8zON-50" value="" style="rounded=0;whiteSpace=wrap;html=1;" parent="1" vertex="1">
          <mxGeometry x="128.49668701171873" y="113.99665649414062" width="51" height="25" as="geometry" />
        </mxCell>
        <mxCell id="xv-40C5iXmkyNjvE8zON-51" value="" style="rounded=0;whiteSpace=wrap;html=1;" parent="1" vertex="1">
          <mxGeometry x="198.49668701171873" y="113.99665649414062" width="51" height="25" as="geometry" />
        </mxCell>
        <mxCell id="xv-40C5iXmkyNjvE8zON-52" value="Óra" style="text;html=1;align=center;verticalAlign=middle;whiteSpace=wrap;rounded=0;" parent="1" vertex="1">
          <mxGeometry x="53.99668701171875" y="113.99665649414062" width="60" height="30" as="geometry" />
        </mxCell>
        <mxCell id="xv-40C5iXmkyNjvE8zON-53" value="Nap" style="text;html=1;align=center;verticalAlign=middle;whiteSpace=wrap;rounded=0;" parent="1" vertex="1">
          <mxGeometry x="123.99668701171875" y="113.99665649414062" width="60" height="30" as="geometry" />
        </mxCell>
        <mxCell id="xv-40C5iXmkyNjvE8zON-54" value="Hét" style="text;html=1;align=center;verticalAlign=middle;whiteSpace=wrap;rounded=0;" parent="1" vertex="1">
          <mxGeometry x="196.49668701171873" y="113.99665649414062" width="60" height="30" as="geometry" />
        </mxCell>
        <mxCell id="xv-40C5iXmkyNjvE8zON-55" value="&lt;font style=&quot;font-size: 16px;&quot;&gt;Pénz: xxxx&lt;/font&gt;" style="text;html=1;align=center;verticalAlign=middle;whiteSpace=wrap;rounded=0;" parent="1" vertex="1">
          <mxGeometry x="637.4966870117188" y="113.99665649414062" width="103" height="30" as="geometry" />
        </mxCell>
        <mxCell id="xv-40C5iXmkyNjvE8zON-56" value="&lt;font style=&quot;font-size: 16px;&quot;&gt;Idő: xxxx&lt;/font&gt;" style="text;html=1;align=center;verticalAlign=middle;whiteSpace=wrap;rounded=0;" parent="1" vertex="1">
          <mxGeometry x="637.4966870117188" y="141.9966564941406" width="117.5" height="30" as="geometry" />
        </mxCell>
        <mxCell id="xv-40C5iXmkyNjvE8zON-57" value="" style="rounded=0;whiteSpace=wrap;html=1;" parent="1" vertex="1">
          <mxGeometry x="28.99668701171875" y="181.9966564941406" width="19" height="60" as="geometry" />
        </mxCell>
        <mxCell id="xv-40C5iXmkyNjvE8zON-58" value="&lt;font style=&quot;font-size: 16px;&quot;&gt;Bejárat&lt;/font&gt;" style="text;html=1;align=center;verticalAlign=middle;whiteSpace=wrap;rounded=0;" parent="1" vertex="1">
          <mxGeometry x="-12.003312988281252" y="196.9966564941406" width="60" height="30" as="geometry" />
        </mxCell>
        <mxCell id="xv-40C5iXmkyNjvE8zON-59" value="" style="rounded=0;whiteSpace=wrap;html=1;" parent="1" vertex="1">
          <mxGeometry x="28.99668701171875" y="253.9966564941406" width="19" height="60" as="geometry" />
        </mxCell>
        <mxCell id="xv-40C5iXmkyNjvE8zON-60" value="&lt;font style=&quot;font-size: 16px;&quot;&gt;Bolt&lt;/font&gt;" style="text;html=1;align=center;verticalAlign=middle;whiteSpace=wrap;rounded=0;" parent="1" vertex="1">
          <mxGeometry x="652.9966870117188" y="509.4966564941406" width="60" height="30" as="geometry" />
        </mxCell>
        <mxCell id="xv-40C5iXmkyNjvE8zON-61" value="" style="curved=1;endArrow=classic;html=1;rounded=0;" parent="1" target="xv-40C5iXmkyNjvE8zON-59" edge="1">
          <mxGeometry width="50" height="50" relative="1" as="geometry">
            <mxPoint x="49.99668701171875" y="211.9966564941406" as="sourcePoint" />
            <mxPoint x="99.99668701171875" y="161.9966564941406" as="targetPoint" />
            <Array as="points">
              <mxPoint x="454.99668701171873" y="167.9966564941406" />
              <mxPoint x="772.9966870117188" y="248.9966564941406" />
              <mxPoint x="497.99668701171873" y="544.9966564941407" />
              <mxPoint x="312.99668701171873" y="443.9966564941406" />
              <mxPoint x="330.99668701171873" y="449.9966564941406" />
              <mxPoint x="249.99668701171873" y="449.9966564941406" />
              <mxPoint x="114.99668701171875" y="557.9966564941407" />
            </Array>
          </mxGeometry>
        </mxCell>
        <mxCell id="xv-40C5iXmkyNjvE8zON-62" value="" style="endArrow=none;html=1;rounded=0;entryX=0.5;entryY=1;entryDx=0;entryDy=0;exitX=0.5;exitY=0;exitDx=0;exitDy=0;" parent="1" source="xv-40C5iXmkyNjvE8zON-59" target="xv-40C5iXmkyNjvE8zON-57" edge="1">
          <mxGeometry width="50" height="50" relative="1" as="geometry">
            <mxPoint x="355.99668701171873" y="400.9966564941406" as="sourcePoint" />
            <mxPoint x="405.99668701171873" y="350.9966564941406" as="targetPoint" />
          </mxGeometry>
        </mxCell>
        <mxCell id="xv-40C5iXmkyNjvE8zON-63" value="&lt;font style=&quot;font-size: 16px;&quot;&gt;Safari menü&lt;/font&gt;" style="text;html=1;align=center;verticalAlign=middle;whiteSpace=wrap;rounded=0;" parent="1" vertex="1">
          <mxGeometry x="94.99668701171875" y="244.9966564941406" width="60" height="30" as="geometry" />
        </mxCell>
        <mxCell id="xv-40C5iXmkyNjvE8zON-64" value="&lt;font style=&quot;font-size: 16px;&quot;&gt;Kijárat&lt;/font&gt;" style="text;html=1;align=center;verticalAlign=middle;whiteSpace=wrap;rounded=0;" parent="1" vertex="1">
          <mxGeometry x="-14.003312988281252" y="268.9966564941406" width="60" height="30" as="geometry" />
        </mxCell>
        <mxCell id="xv-40C5iXmkyNjvE8zON-65" value="" style="ellipse;whiteSpace=wrap;html=1;aspect=fixed;" parent="1" vertex="1">
          <mxGeometry x="476.99668701171873" y="419.9966564941406" width="34" height="34" as="geometry" />
        </mxCell>
        <mxCell id="xv-40C5iXmkyNjvE8zON-66" value="" style="ellipse;whiteSpace=wrap;html=1;aspect=fixed;" parent="1" vertex="1">
          <mxGeometry x="310.99668701171873" y="207.9966564941406" width="34" height="34" as="geometry" />
        </mxCell>
        <mxCell id="xv-40C5iXmkyNjvE8zON-67" value="" style="ellipse;whiteSpace=wrap;html=1;aspect=fixed;" parent="1" vertex="1">
          <mxGeometry x="149.99668701171873" y="426.9966564941406" width="34" height="34" as="geometry" />
        </mxCell>
        <mxCell id="xv-40C5iXmkyNjvE8zON-68" value="Töltő" style="text;html=1;align=center;verticalAlign=middle;whiteSpace=wrap;rounded=0;" parent="1" vertex="1">
          <mxGeometry x="304.49668701171873" y="211.9966564941406" width="47" height="30" as="geometry" />
        </mxCell>
        <mxCell id="xv-40C5iXmkyNjvE8zON-69" value="Töltő" style="text;html=1;align=center;verticalAlign=middle;whiteSpace=wrap;rounded=0;" parent="1" vertex="1">
          <mxGeometry x="143.49668701171873" y="430.9966564941406" width="47" height="30" as="geometry" />
        </mxCell>
        <mxCell id="xv-40C5iXmkyNjvE8zON-70" value="Töltő" style="text;html=1;align=center;verticalAlign=middle;whiteSpace=wrap;rounded=0;" parent="1" vertex="1">
          <mxGeometry x="466.99668701171873" y="423.9966564941406" width="47" height="30" as="geometry" />
        </mxCell>
        <mxCell id="xv-40C5iXmkyNjvE8zON-71" value="" style="shape=tape;whiteSpace=wrap;html=1;rotation=0;" parent="1" vertex="1">
          <mxGeometry x="435.99668701171873" y="251.9966564941406" width="139.25" height="39" as="geometry" />
        </mxCell>
        <mxCell id="xv-40C5iXmkyNjvE8zON-72" value="Folyó" style="text;html=1;align=center;verticalAlign=middle;whiteSpace=wrap;rounded=0;" parent="1" vertex="1">
          <mxGeometry x="463.99668701171873" y="260.9966564941406" width="60" height="30" as="geometry" />
        </mxCell>
        <mxCell id="xv-40C5iXmkyNjvE8zON-73" value="" style="triangle;whiteSpace=wrap;html=1;rotation=-90;" parent="1" vertex="1">
          <mxGeometry x="216.24668701171873" y="338.7466564941406" width="33" height="43.5" as="geometry" />
        </mxCell>
        <mxCell id="xv-40C5iXmkyNjvE8zON-74" value="" style="triangle;whiteSpace=wrap;html=1;rotation=-90;" parent="1" vertex="1">
          <mxGeometry x="244.99668701171873" y="341.9966564941406" width="33" height="43.5" as="geometry" />
        </mxCell>
        <mxCell id="xv-40C5iXmkyNjvE8zON-75" value="" style="triangle;whiteSpace=wrap;html=1;rotation=-90;" parent="1" vertex="1">
          <mxGeometry x="231.99668701171873" y="329.9966564941406" width="33" height="43.5" as="geometry" />
        </mxCell>
        <mxCell id="xv-40C5iXmkyNjvE8zON-76" value="Dombok" style="text;html=1;align=center;verticalAlign=middle;whiteSpace=wrap;rounded=0;" parent="1" vertex="1">
          <mxGeometry x="218.49668701171873" y="316.9966564941406" width="60" height="30" as="geometry" />
        </mxCell>
        <mxCell id="xv-40C5iXmkyNjvE8zON-77" value="" style="ellipse;shape=cloud;whiteSpace=wrap;html=1;" parent="1" vertex="1">
          <mxGeometry x="425.99668701171873" y="352.9966564941406" width="77" height="35" as="geometry" />
        </mxCell>
        <mxCell id="xv-40C5iXmkyNjvE8zON-78" value="Bokor" style="text;html=1;align=center;verticalAlign=middle;whiteSpace=wrap;rounded=0;" parent="1" vertex="1">
          <mxGeometry x="439.99668701171873" y="357.9966564941406" width="60" height="30" as="geometry" />
        </mxCell>
        <mxCell id="xv-40C5iXmkyNjvE8zON-79" value="" style="rounded=0;whiteSpace=wrap;html=1;" parent="1" vertex="1">
          <mxGeometry x="98.49668701171875" y="177.9966564941406" width="578.5" height="281" as="geometry" />
        </mxCell>
        <mxCell id="xv-40C5iXmkyNjvE8zON-80" value="" style="rounded=0;whiteSpace=wrap;html=1;glass=0;fillColor=#76608a;strokeColor=#432D57;fillStyle=cross-hatch;fontColor=#ffffff;" parent="1" vertex="1">
          <mxGeometry x="114.99668701171875" y="207.9966564941406" width="70" height="64" as="geometry" />
        </mxCell>
        <mxCell id="xv-40C5iXmkyNjvE8zON-81" value="" style="rounded=0;whiteSpace=wrap;html=1;" parent="1" vertex="1">
          <mxGeometry x="113.99668701171875" y="282.9966564941406" width="71" height="18" as="geometry" />
        </mxCell>
        <mxCell id="xv-40C5iXmkyNjvE8zON-82" value="" style="rounded=0;whiteSpace=wrap;html=1;fillStyle=cross-hatch;fillColor=#76608A;" parent="1" vertex="1">
          <mxGeometry x="207.99668701171873" y="207.9966564941406" width="70" height="64" as="geometry" />
        </mxCell>
        <mxCell id="xv-40C5iXmkyNjvE8zON-83" value="" style="rounded=0;whiteSpace=wrap;html=1;" parent="1" vertex="1">
          <mxGeometry x="206.99668701171873" y="282.9966564941406" width="71" height="18" as="geometry" />
        </mxCell>
        <mxCell id="xv-40C5iXmkyNjvE8zON-84" value="" style="rounded=0;whiteSpace=wrap;html=1;fillStyle=cross-hatch;fillColor=#76608A;" parent="1" vertex="1">
          <mxGeometry x="298.99668701171873" y="207.9966564941406" width="70" height="64" as="geometry" />
        </mxCell>
        <mxCell id="xv-40C5iXmkyNjvE8zON-85" value="" style="rounded=0;whiteSpace=wrap;html=1;" parent="1" vertex="1">
          <mxGeometry x="297.99668701171873" y="282.9966564941406" width="71" height="18" as="geometry" />
        </mxCell>
        <mxCell id="xv-40C5iXmkyNjvE8zON-86" value="Útvonal" style="text;html=1;align=center;verticalAlign=middle;whiteSpace=wrap;rounded=0;" parent="1" vertex="1">
          <mxGeometry x="118.99668701171875" y="278.9966564941406" width="60" height="30" as="geometry" />
        </mxCell>
        <mxCell id="xv-40C5iXmkyNjvE8zON-87" value="Útvonal" style="text;html=1;align=center;verticalAlign=middle;whiteSpace=wrap;rounded=0;" parent="1" vertex="1">
          <mxGeometry x="211.99668701171873" y="278.9966564941406" width="60" height="30" as="geometry" />
        </mxCell>
        <mxCell id="xv-40C5iXmkyNjvE8zON-88" value="Útvonal" style="text;html=1;align=center;verticalAlign=middle;whiteSpace=wrap;rounded=0;" parent="1" vertex="1">
          <mxGeometry x="302.99668701171873" y="278.9966564941406" width="60" height="30" as="geometry" />
        </mxCell>
        <mxCell id="xv-40C5iXmkyNjvE8zON-89" value="Menü" style="rounded=0;whiteSpace=wrap;html=1;" parent="1" vertex="1">
          <mxGeometry x="113.99668701171875" y="181.9966564941406" width="70" height="19" as="geometry" />
        </mxCell>
        <mxCell id="xv-40C5iXmkyNjvE8zON-90" value="&lt;font color=&quot;#000000&quot;&gt;Vadőr kezelés&lt;/font&gt;" style="rounded=0;whiteSpace=wrap;html=1;fillColor=none;fontColor=#ffffff;strokeColor=#000000;" parent="1" vertex="1">
          <mxGeometry x="201.99668701171873" y="181.9966564941406" width="82" height="20" as="geometry" />
        </mxCell>
        <mxCell id="xv-40C5iXmkyNjvE8zON-92" value="Megfigyelő rendszer" style="rounded=0;whiteSpace=wrap;html=1;fillColor=#60a917;fontColor=#ffffff;strokeColor=#2D7600;" parent="1" vertex="1">
          <mxGeometry x="299" y="182" width="114" height="20" as="geometry" />
        </mxCell>
      </root>
    </mxGraphModel>
  </diagram>
</mxfile>
